<svg version="1" xmlns="http://www.w3.org/2000/svg" width="802.667" height="802.667" viewBox="0 0 602.000000 602.000000"><path d="M266.9 12.4c-.2.3-2.2.7-4.4.9-6.1.8-7.1 1.5-10.6 7-1.8 2.9-4.6 6.6-6.2 8.4-1.6 1.7-2.6 3.6-2.2 4.2.3.6.1 1-.6.9-.6-.2-1.4.3-1.7 1.1-.3.9 0 1.1.9.6.8-.5 1-.4.6 0-1.4 1.6-3.9 1.4-3.3-.2.6-1.4-.3-1.5-6.6-1.1-8.8.6-15 3.1-20.1 8.4-3.9 4-8.7 13-8.7 16.3 0 1-1.3 4.4-2.9 7.6l-2.9 5.8 7.1-6.9c3.9-3.8 7.3-7.2 7.5-7.7.2-.4.7-.7 1.1-.7 1 0-.8 10.2-2 11.4-.5.6-.9 2.1-.9 3.5 0 1.5-.9 5.5-2 9.1-2.4 7.9-2.4 7.5-.2 5.9 1.4-1.1 1.4-1-.2.8-1 1.3-2.3 2-2.7 1.7-1-.6-1.3.2-2.4 4.9-.4 2-1 2.6-1.8 2-.7-.4-.5 0 .6.9 1.3 1.2 1.6 2.4 1.2 3.9l-.7 2.2-1.4-2.4c-.8-1.4-1.3-1.8-1.4-.9 0 1.5-5-5.2-5-6.8 0-.5-1.1-1.9-2.5-3.2-2.2-2-2.5-2.1-3.1-.6-.8 2 1.9 9.5 4.5 12.2 2.5 2.8 3 4.7 1.4 6.2-.7.7-1.3 2.9-1.3 4.9 0 2.6-.4 3.4-1.4 3-.9-.4-1.3.3-1.4 2.1 0 4.7-.2 5.2-1.7 5.2-1.3 0-1.4.4-.4 2.2.6 1.3 2.2 3.4 3.4 4.8 1.3 1.4 2.9 4.5 3.5 7 2.6 9.8 15.9 26.3 24.6 30.5 1.7.8 3.7 2.1 4.4 3 .7.8 1.9 1.5 2.7 1.5.8 0 4.8 1.2 8.9 2.6 8.7 3.1 9.2 4.5 3.5 9.7-4.7 4.2-17.9 12.2-18.8 11.3-1.4-1.3-22.8 12.9-21.8 14.5.3.5 0 .6-.8.3s-1.8-.1-2.1.5c-.4.5-3.1 1.7-6 2.5-6.3 1.9-14.6 8.8-16.7 13.8-1.3 3.4-6.8 10.7-5.6 7.5.4-1-2.4.7-6.4 3.8-6.8 5.5-7.1 5.6-10.5 4.5-4-1.4-7.9-7.6-6.3-10.1.5-.8.8-3.1.7-5.1-.2-2.6.4-4.4 1.9-6 1.1-1.3 2.8-3.5 3.8-5.1 1.7-2.6 1.7-2.9-.1-7.5-1-2.6-1.7-5.1-1.6-5.5.1-.4-1.9-2.9-4.5-5.5-3.3-3.3-6.5-5.3-10.2-6.5-5.6-1.8-10.1-2.2-10.1-.9 0 .4-2.1 1.5-4.7 2.5-7.5 2.6-8.1 3.2-5.9 5.5 1.7 1.9 1.7 2.2-.2 5.7l-1.8 3.7-1.7-2.6c-1-1.4-2.2-2.6-2.7-2.6-2 0-7 9.4-8.1 15.2-1 4.8-1.5 5.8-2.8 5.2-.9-.4-4.4-.9-7.9-1.2-6.8-.5-8.1.8-4.3 4.2 1.6 1.5 1.7 2.2.8 4.7-1.4 3.5-1.4 3.5-5 .4-2.6-2.3-2.7-2.7-1.3-4.1 1.7-1.7 2.1-4.4.7-4.4-4.5 0-15.9 9.7-18 15.3-1.9 4.9-1.3 9.9 1.8 15.1 2.2 4 2.7 5.6 2.1 8.3-.5 2.2-.4 3.1.2 2.7.6-.4.8-.1.6.7-.6 1.7 3.3 5.3 8.7 8.1l4 2.1-3.9 1.1c-3.2.9-4.1 1.8-5.5 5.3l-1.7 4.3-2.2-2.2-2.2-2.2-2.7 2.6-2.7 2.7 2.3 2.5c2.3 2.5 2.3 2.6.7 6.1l-1.7 3.6-1.9-2.3c-2.7-3.2-2.6-.6.2 6.3 3.6 8.9 4.4 9.4 18.4 12.5 7.9 1.7 8.1 1.8 6.4 3.6-2.9 3.1-6.7 10.9-10.1 20.3-3.5 10.1-3.4 13.7.6 21.8 1.4 2.7 2.5 5.9 2.5 7.2 0 1.2.9 5.2 2 8.7 3.8 12.5 12.7 19.3 34.1 26 9.5 2.9 11.6 3.2 23.4 3.2 9.2 0 14.9-.5 19.5-1.7 14.2-3.8 23.5-7.2 28.1-10.3l4.9-3.3v3.9c0 2.1.4 4 .9 4.2.4.2 2.3 4.8 4.1 10.3 3.6 11.1 10.9 27.2 16.6 36.8 2 3.4 4.6 7.8 5.7 9.7l2.1 3.5-2.4-2-2.3-2 1.3 2.5c2 3.9 4.5 6.9 12.2 14.7l7 7.1-1.6 4.9c-2.1 6.5-2.5 15.5-.7 17.7 1.9 2.3 16.7 10.2 25.4 13.6 4 1.6 11 5.3 15.6 8.4 10.6 7 13.3 7.5 23 4.6 4.2-1.2 10.5-2.9 14.1-3.8 3.6-.8 10.1-3 14.5-4.8 4.4-1.9 8.5-3.4 9.1-3.4.6 0 2.5-.7 4-1.5 1.6-.8 4-1.4 5.4-1.4 2.3.1 2.3.2-.5 1-3.3.9 6.5.4 14.4-.8 3.4-.5 4.2-.3 3.6.6-.6 1 1.3 1.2 8.6.9 9.3-.3 12.9-1.4 20.9-6.2 2-1.2 20.2-4.7 37-7.1 6.4-.9 26.9-.6 30.8.4 5.7 1.6 10.3 5 14 10.5 3.8 5.8 4.3 12 1.3 17-3.4 5.4-10.7 11.5-17.3 14.3-2.2 1-2.6 1-2.2-.1.3-.8.1-1.7-.5-2.1-.6-.3-1.1 0-1.1.8 0 1.8-2.7 3-3.5 1.7-1-1.6-2.2-1.1-2.8 1-.3 1.2-1.4 2-2.7 2-1.3 0-2.8.6-3.4 1.4-1.2 1.6-12 4.8-41.8 12.5-31.8 8.3-38 10.6-68.3 25.1-15.2 7.3-16.5 8.1-12.1 7.6 4.6-.6 21.2-4.9 50.1-13.1 16.7-4.7 45.3-12.1 62.2-16 13.5-3.1 14.3-3.1 15.8-1.5 1.8 2 6.6 3.3 5.9 1.6-.2-.6-1.7-2-3.3-3l-2.8-1.9 3.4-1.8c3.1-1.6 3.6-1.6 6.5-.2 2.3 1.2 3.5 1.3 4.8.5.9-.5 5.2-2 9.6-3.2 4.3-1.2 8.6-2.8 9.5-3.6.8-.8 2.5-1.4 3.6-1.4 3.8 0 9.3-2.9 8.7-4.5-.4-.8-.1-1.5.5-1.5s1.1.5 1.1 1c0 1.5 5.8-1.7 11.1-6.1 11-9.1 16.7-31.6 12.4-48.3-3.9-14.7-11.4-28.5-19.8-36.3-5.2-4.8-15.7-10.4-23.8-12.7-8.8-2.5-26.6-1.9-43.7 1.5l-14.4 2.9-4.4-4.9c-2.5-2.7-6.5-5.9-9-7.2-4-1.9-5.6-2.1-12.8-1.6-8.7.7-14-.8-18.8-5.2-1.2-1.2-2.9-2.1-3.8-2.1-.9 0-3.1-2-4.9-4.5-3.9-5.5-8.7-7.9-14.1-7.2l-4 .5v-5.7c0-5 .6-7 4.9-14.9 7-12.8 8.3-14.7 15.2-22.6 1.9-2.3 5.9-7.1 8.8-10.8 10.5-13.4 30.6-30.6 37.2-31.8 3.9-.7 4-.6 7.1 3.8 1.7 2.5 3.2 5.8 3.4 7.4.2 1.5 1.1 4.2 1.9 5.9 2.1 4 8.5 11 9.5 10.4.5-.3 1.7 1 2.9 2.8 2.5 4.1 13.1 14.3 19.1 18.4 18.4 12.5 38.3 17.3 57.9 13.9 26-4.5 45.6-20.9 53.7-44.7 2.2-6.4 2.4-9 2.6-24.8.1-14.2-.2-18.4-1.5-21.6l-1.6-4 .4 5c.5 4.9.4 4.9-2.1-2.8-2.7-8.2-4.4-10.1-2.4-2.7.6 2.3.9 4.4.6 4.7-.3.3-.8-.7-1.2-2.3-.4-1.5-2.4-6.7-4.5-11.6-2.1-4.9-3.3-8.6-2.8-8.3.5.3 0-1.3-1-3.7-1-2.4-2.1-5-2.4-5.8-.7-1.7-1 4.5-.8 17 .1 5.6-.2 8-.8 7-.8-1.2-1.4-.9-3.1 1.3-1.9 2.4-5 3.7-5 2.1 0-.3 1.7-4 3.7-8.2 3.1-6.5 3.8-8.8 3.8-14.3 0-6.4.1-6.6 4.8-11.5 2.6-2.7 5.9-7.3 7.3-10.2 2.2-4.6 2.4-6.2 1.8-11-.7-6.5-2.2-9.8-5.6-12.8-3-2.8-8.2-5.4-10.8-5.4-2.4 0-2.6 1.5-.3 2.8 1.5.9 1.5 1.3-.4 5.2-1.9 3.6-2.2 3.9-2.8 2.1-.3-1.2-1-2.1-1.5-2.1-1.4 0-2.1-3.2-.9-4.6.6-.8.9-2 .6-2.8-.5-1.1-1.4-1.2-4.8-.5-2.3.5-5 1.4-6.1 2-3 1.6-3.2.4-.4-3.8 6.4-9.8 7.6-27.2 2.4-35.1-3.5-5.2-6.6-7.2-12-7.9l-4.3-.6 2.1 2.4 2.1 2.4-2.1 3-2.1 3.1-2.2-2.6c-1.5-1.8-1.9-3.1-1.2-4.1 1.4-2.3 1-3.9-1-3.9-2.8 0-5.2 1.1-4.6 2 .3.5.1 1.1-.4 1.4-.5.4-1.2.2-1.6-.4-1.1-1.8-2.6-1.1-7.6 3.9-3.7 3.7-5.4 6.4-7 11.3-1.1 3.4-1.8 7.3-1.6 8.5.2 1.3 0 2-.6 1.6-.5-.3-.7-2.9-.3-6.2 1-8.1.9-10.5-.3-10.9-.6-.2-1.1-1-1.1-1.7 0-.8-.6-2-1.3-2.7-.7-.7-2.5-3.4-4-6-2.9-4.9-15.8-16.7-21.4-19.3-1.7-.8-4.4-1.8-6-2.1-2.5-.4-3-.1-4.7 3.6l-2 4.1-2.2-2.8c-1.2-1.5-1.9-3.3-1.7-4 .6-1.6-1.5-1.6-4.4 0-3 1.7-9.3 9.2-10 11.9-2.2 9.3-1.2 13 5.5 18.8 2.5 2.2 4.3 4.2 4 4.5-1 1-8.8-5.6-9.4-7.9-.5-2-1.8-2.9-6.7-4.5-16-5.1-68.4-19.1-71.4-19.1-.5 0-.1.5.7 1 1.2.8 1.2 1-.5 1-2.7 0-21.3-19.2-24.3-25l-2.3-4.5 2.3 2.9c6 7.6 14.2 16.7 15.8 17.6 1.6.8 1.7.2 1.9-7.3.2-9.9-.4-12.3-2.7-10.5-.8.7-.3-.6 1.2-3 5.4-8.5 10.6-22 11.2-29 .9-9.5-3.8-28.4-7.7-30.8-.8-.4-.8-.1 0 1.5 1 1.7.9 2-.4 1.5-.8-.4-1.5-1-1.5-1.4 0-.4-1.9-2.8-4.1-5.4-4.4-5-9.9-8.6-9.9-6.5 0 .7-1.3-.7-3-2.9-2.9-4-10.5-9-11.8-7.7-.3.3 0 1.6.8 2.8 5.5 8.6 10 17.6 10 20.1v2.9l-2.5-2.7c-3.1-3.4-5.8-9.5-5.1-11.8.2-1.1-.1-1.8-1-1.8-.8 0-3.7-1.2-6.4-2.8-3.9-2.1-5.2-2.4-5.8-1.4-.7 1-1.1 1-2.2-.3-.9-1.1-1.5-1.3-2-.4-.6.8-1.3.8-2.9-.1-1.7-.9-2.6-.9-3.8.2-1.3 1.1-2 .7-4.7-2.5-2.1-2.5-4.7-4.3-7.6-5.2-3.8-1.2-4.1-1.4-1.7-1.4l2.9-.1-3.3-4.1c-3.6-4.5-6.8-6.1-11.3-5.7l-3.1.3 5.8 4.4c3.1 2.4 5.7 4.8 5.7 5.3 0 .6.9 2.3 2.1 3.9 1.8 2.6 1.5 4.1-.5 2.2-.9-1-12.8-3.1-17.5-3.2-2.4-.1-3.2-.5-2.8-1.5.8-2-2.2-4.3-6.5-5.1-3.9-.7-4.8.1-2.6 2.3.9.9.9 1.2 0 1.2-.7 0-1.2-.3-1.2-.8 0-.4-2.4-1.6-5.2-2.6-2.9-1-5.9-2.1-6.5-2.3-.7-.3-1.3-.1-1.3.4 0 .4 2.7 1.9 6 3.2 3.3 1.3 6 2.7 6 3 0 .3-.7 1.4-1.4 2.4-1.4 1.8-1.6 1.8-5.5-.2-2.2-1.2-4.4-2.1-5-2.1-.5 0-3.4 1.4-6.4 3.2-5.4 3-5.6 3.3-6.5 8.7-1 5.3-.8 5.9 2 11.1 1.7 3 4.2 7 5.5 8.7 1.3 1.8 2 3.3 1.5 3.3-1.3 0-3.5-2.8-7.2-9.5-3.1-5.4-3.4-6.6-3.1-13.1.1-5.8-.1-7.4-1.4-8.1-1.4-.8-1.2-1.4 1.5-4 4-3.9 15.2-9.5 17.4-8.7.9.3 2.2.1 3-.5 1.8-1.5 15.6-3.5 24.6-3.6 6.7 0 8.4.4 15.1 3.7 4.2 2.1 12.5 4.9 18.5 6.3 6 1.4 11.8 2.9 12.8 3.2 1.7.5 1.8.1 1.3-4.2-.4-2.7-1.1-5.3-1.6-5.9-.5-.6-1.2-3.8-1.6-7.1-.7-5.3-1.2-6.5-5-10.1-5.5-5.3-13.3-9.1-21.5-10.4-6.7-1-13.4-1.3-14.1-.6zm5.6 11.6c2.1.5.4.8-5.5.8-5.6 0-7.7-.3-6-.8 3.1-1 7.6-1 11.5 0zm-38.2 34.6c4.8 2.5 6.2 5.6 3.1 6.8-2.4.9-4.6-1.2-3.4-3.3.6-1.3.4-2-1-2.9-1.6-1-2.6-.8-5.5.9-4.4 2.6-4.6 1.8-.2-1 3.9-2.5 3.1-2.4 7-.5zm-1.8 2.3c.3.5.1 1.3-.5 1.6-1.5.9-4.3-.3-3.5-1.5.8-1.3 3.2-1.3 4-.1zM270 88c0 .5-.7 1-1.6 1-.8 0-1.2-.5-.9-1 .3-.6 1-1 1.6-1 .5 0 .9.4.9 1zm70.7 4.2c-.3.7-.5.2-.5-1.2s.2-1.9.5-1.3c.2.7.2 1.9 0 2.5zM305 91c0 .5-.9 1-2.1 1-1.1 0-1.7-.5-1.4-1 .3-.6 1.3-1 2.1-1s1.4.4 1.4 1zm-47.9 8.8c-1.1 2.1-3 4.6-4.3 5.4-2.8 1.8-9 2.9-10.7 1.8-.8-.4.5-1 3.3-1.4 4.9-.8 9.3-3.8 11.5-8 2.3-4.2 2.4-2.2.2 2.2zM279 103c1.1.7.7 1-1.8 1-3.7 0-6.6 1.2-10.1 4.4-1.8 1.6-2.2 1.7-1.5.4 1.4-2.6 7.5-6.8 9.8-6.8 1.2 0 2.8.5 3.6 1zm45 8.8c0 2.8-1.7 6.2-3.1 6.2-.6 0-.3-1 .5-2.2 2-2.8 2-5.9.1-8.4-.8-1-1.4-2.4-1.5-2.9 0-.6.9.3 2 2 1.1 1.6 2 4 2 5.3zm-45.8-3c-.7.5-1 1.6-.6 2.7.5 1.3.3 1.6-.7 1.3-.8-.3-1.3-1.1-1.1-1.7.1-.6-.3-1.1-.8-1.1-1.5 0-6 4.6-6 6.1 0 .7-.2 1-.5.7-1.1-1 1.7-6.6 3.8-7.6 2.6-1.3 7.9-1.6 5.9-.4zm42.3 5c-.6 1.6-.8 1.5-2.1-.2-1-1.5-1.1-2.3-.2-3.3 1-1.2 1.3-1.2 2.1.2.5.9.6 2.4.2 3.3zm-3.5.2c0 .5-.2 1-.4 1-.3 0-.8-.5-1.1-1-.3-.6-.1-1 .4-1 .6 0 1.1.4 1.1 1zm-90.3 6.2c-.3.7-.5.2-.5-1.2s.2-1.9.5-1.3c.2.7.2 1.9 0 2.5zm66.5-2.5c-.6.2-1 .9-.6 1.4.3.5-.8 1.4-2.3 2-1.5.6-4.2 1.7-6 2.5-3.9 1.6-5 .4-2-2.3 3.4-3.1 5.9-4.2 9.2-4.2 1.7 0 2.4.3 1.7.6zm4.1 4c-.7.2-2.1.2-3 0-1-.3-.4-.5 1.2-.5 1.7 0 2.4.2 1.8.5zm-52.5 4.2c-1.3 1.5-2.5 2.7-2.7 2.5-.7-.6 2.9-5.4 4-5.4.6 0 0 1.3-1.3 2.9zm6.2-.9c0 .5-.4 1-1 1-.5 0-1-.5-1-1 0-.6.5-1 1-1 .6 0 1 .4 1 1zm-15 17c-1 1.4-2.3 4.1-2.8 6-.9 3.1-1 3.2-1.1.9-.1-1.4.9-4.2 2.2-6 2-2.9 2.3-4.5 2.1-10.4l-.3-7 .9 6.9c.8 6.1.6 7.3-1 9.6zm18.5-6.3c-.9 1.5-1.3 1.9-1 .8.4-1.1 1-2.9 1.3-4 .3-1.1.7-1.4.9-.8.3.7-.3 2.4-1.2 4zm7.7-.3c.2 2-.2 4.3-1 5.3-1.3 1.7-1.4 1.7-2.8-.1-1.8-2.5-1.8-3.6.2-6.4 2.1-3.1 3.1-2.8 3.6 1.2zm-10.6 10.3c-.1 2.7.3 6.4.7 8.3.8 3.5.8 3.5-.7 1-2.1-3.4-2.1-14-.1-14 .1 0 .2 2.1.1 4.7zm34.4 11.4c0 .5.5.7 1 .4 2.6-1.6.6 1.6-3 4.9-4.8 4.4-6 4.5-6 .7 0-2.2.8-3.4 3.3-5 3.6-2.3 4.7-2.6 4.7-1zm-29.9 4.6c1.3 1.6 1.2 1.7-.3.4-1.7-1.3-2.2-2.1-1.4-2.1.2 0 1 .8 1.7 1.7zm86 1c1.3 1.6 1.2 1.7-.3.4-1.7-1.3-2.2-2.1-1.4-2.1.2 0 1 .8 1.7 1.7zm114.8 8.6c-1.8 4.8-2.2 4.9-4.6 1.3l-2.1-3.3 2-3.1 2-3.2 2 2.5c1.8 2.3 1.9 3 .7 5.8zm-172.2-4.1c-1.3 3.2-2.2 3.5-7.2 2.9-.7-.1 6.8-5.6 8.3-6 .1-.1-.4 1.4-1.1 3.1zM441 173c0 .5-.5 1-1.1 1-.5 0-.7-.5-.4-1 .3-.6.8-1 1.1-1 .2 0 .4.4.4 1zm-158 7.3c0 1.9-4.8 3.9-7.2 3.1-1.8-.5-1.5-.9 1.8-2.4 4.8-2.3 5.4-2.3 5.4-.7zm243.8 13.4c-.5.6-1.3 2.4-1.7 3.9l-.7 2.6-2.6-3.4-2.6-3.4 2-3.2 2-3.1 2.3 2.7c1.6 1.9 2 3.1 1.3 3.9zM138.1 205c-1.6 3.6-2 3.9-2.5 2.3-.4-1.1-1.5-2.8-2.6-3.8-1.7-1.6-1.8-1.9-.3-4.9l1.5-3.2 2.9 2.7 2.9 2.7-1.9 4.2zm372.9-8c0 .5-.7 1-1.6 1-.8 0-1.2-.5-.9-1 .3-.6 1-1 1.6-1 .5 0 .9.4.9 1zm-241.3 10c1.3 0 1.5.9 1 4.5-.5 5.3-.3 5-4.3 5.8l-3.1.6 1.8-5.2c1-2.9 1.9-6.1 2-7.2.1-1.7.2-1.7.6-.3.2 1 1.1 1.8 2 1.8zm128.3-2c0 .5-.4 1-1 1-.5 0-1-.5-1-1 0-.6.5-1 1-1 .6 0 1 .4 1 1zm-122.6 7.2c.9 3.5.8 3.8-1.5 3.8-1.5 0-1.9-.4-1.5-1.6.3-.9.6-2.2.6-3 0-2.2 1.7-1.6 2.4.8zm136.6.8c0 .5-.5 1-1.1 1-.5 0-.7-.5-.4-1 .3-.6.8-1 1.1-1 .2 0 .4.4.4 1zm-151.5 5.9c.3.5.1 1.2-.5 1.6-.5.3-1-.1-1-.9 0-1.8.6-2.1 1.5-.7zm144.9 1.8l2.3 2.7-1.9 3.2-2 3.3-2.2-2.6c-2.1-2.4-2.1-2.7-.7-5.9.9-1.8 1.7-3.3 1.9-3.4.2 0 1.3 1.2 2.6 2.7zm-295.9 5.1c-.3.3-.6.3-.7.1-.2-.2-1.4-1.8-2.8-3.4l-2.5-3 3.2 2.9c1.8 1.6 3.1 3.2 2.8 3.4zM201 222c0 .5-.4 1-1 1-.5 0-1-.5-1-1 0-.6.5-1 1-1 .6 0 1 .4 1 1zm193.5 0c.3.5.1 1-.4 1-.6 0-1.1-.5-1.1-1 0-.6.2-1 .4-1 .3 0 .8.4 1.1 1zm-302 2c.3.5.1 1-.4 1-.6 0-1.1-.5-1.1-1 0-.6.2-1 .4-1 .3 0 .8.4 1.1 1zm10.2 2.7c-.3.3-1.1.2-1.7-.2-.8-.5-.7-1.1.2-2.2 1.2-1.5 1.3-1.4 1.6.1.2 1 .1 2-.1 2.3zM531 226c0 .5-.4 1-1 1-.5 0-1-.5-1-1 0-.6.5-1 1-1 .6 0 1 .4 1 1zm-422 9.2c1.1 1.8 2 4 2 4.8 0 .8-1.1-.5-2.5-2.9-2.6-4.5-2.8-5.1-2-5.1.3 0 1.4 1.5 2.5 3.2zm80-2.2c0 .5-.4 1-1 1-.5 0-1-.5-1-1 0-.6.5-1 1-1 .6 0 1 .4 1 1zm363.9 1.9c2 2.8 2.1 3.1.5 6.4l-1.7 3.5-2.4-2.8c-2.3-2.8-2.3-2.9-.6-6.4 1-2 1.9-3.6 2-3.6.1 0 1.1 1.3 2.2 2.9zM77.1 245.1c-1.3 3.3-1.8 3.7-2.6 2.3-.5-1-1.7-2.5-2.6-3.4-1.3-1.4-1.3-2-.1-4.9l1.3-3.4 2.8 2.7c2.9 2.8 2.9 2.8 1.2 6.7zM402 239c0 .5-.4 1-1 1-.5 0-1-.5-1-1 0-.6.5-1 1-1 .6 0 1 .4 1 1zm-312 3c0 .5-.4 1-1 1-.5 0-1-.5-1-1 0-.6.5-1 1-1 .6 0 1 .4 1 1zm-20.5 18c.3.5.1 1-.4 1-.6 0-1.1-.5-1.1-1 0-.6.2-1 .4-1 .3 0 .8.4 1.1 1zm5 8c1.9.8 1.9.9-.2.9-1.2.1-2.5-.4-2.8-.9-.7-1.2.2-1.2 3 0zm-.5 25c0 .5-.4 1-1 1-.5 0-1-.5-1-1 0-.6.5-1 1-1 .6 0 1 .4 1 1zm14.5 31.9c-.4.3-1.5-.5-2.5-1.9-1.4-1.9-1.6-2.8-.7-3.9.9-1.1 1.4-.8 2.5 1.9.7 1.8 1 3.5.7 3.9zM556 340.4c0 .2-.8 1-1.7 1.7-1.6 1.3-1.7 1.2-.4-.4 1.3-1.6 2.1-2.1 2.1-1.3zm-49.3 136.2c-.9.9-2.8-.6-2.1-1.8.4-.6 1-.6 1.7.1.6.6.8 1.3.4 1.7zm-19.7 9.5c0 .5-.7.9-1.5.9-1.5 0-2-1.2-.9-2.3.8-.8 2.4.1 2.4 1.4zm2.5 14.9c.3.5.1 1-.4 1-.6 0-1.1-.5-1.1-1 0-.6.2-1 .4-1 .3 0 .8.4 1.1 1zm18.5 5c0 .5-.4 1-1 1-.5 0-1-.5-1-1 0-.6.5-1 1-1 .6 0 1 .4 1 1zm-13.2 20.4c.1 4.2 0 4.5-3.7 6.3l-3.9 2v-4.2c0-3.6.3-4.3 3.6-6.2 2.1-1.1 3.7-2.1 3.7-2.2.1-.1.2 1.9.3 4.3zm-12.4 17.1c-.4.8-1.2 1.5-2 1.5s-1.1-.6-.8-1.5c.4-.8 1.2-1.5 2-1.5s1.1.6.8 1.5zm-17 4c-.6 1.6-3.4 2.1-3.4.7 0-1.3 1.1-2.2 2.6-2.2.8 0 1.1.6.8 1.5zm-17.6 2.3c.2.7-.3 1.2-1.2 1.2-.9 0-1.6-.7-1.6-1.6 0-1.7 2.2-1.4 2.8.4zm17.2.6c0 .3-.4.8-1 1.1-.5.3-1 .1-1-.4 0-.6.5-1.1 1-1.1.6 0 1 .2 1 .4zm-10.6 3.1c-.6 1.6-3.4 2.1-3.4.7 0-1.3 1.1-2.2 2.6-2.2.8 0 1.1.6.8 1.5zm-11.4 4.6c0 .5-.7.9-1.5.9-.9 0-1.2-.6-.9-1.5.6-1.5 2.4-1.1 2.4.6zm-12-.1c0 .5-.4 1-1 1-.5 0-1-.5-1-1 0-.6.5-1 1-1 .6 0 1 .4 1 1zm-1.2 3.1c-.2.6-.8 1-1.3 1s-1.1-.4-1.3-1c-.2-.6.4-1.1 1.3-1.1s1.5.5 1.3 1.1zm-16.7.9c.6 0 .6.7 0 1.9-.7 1.3-1.8 1.7-3.5 1.4-2.2-.5-2.4-.8-1.5-2.5.6-1.2 1.7-1.7 2.6-1.4.8.3 1.9.6 2.4.6zm-13.1 3.5c0 .8-.7 1.5-1.5 1.5-.9 0-1.2-.6-.9-1.5.4-.8 1-1.5 1.5-1.5s.9.7.9 1.5z"/><path d="M454 564.5c-1.6 1.9 0 1.9 2.6 0 1.6-1.2 1.6-1.4.3-1.5-.9 0-2.2.7-2.9 1.5z"/></svg>